<svg width="46" height="41" fill="none" xmlns="http://www.w3.org/2000/svg"><path d="M41.417 4.604a11.459 11.459 0 0 0-16.209 0L23 6.812l-2.208-2.208A11.461 11.461 0 0 0 4.583 20.813l2.209 2.208L23 39.229l16.208-16.208 2.209-2.209a11.457 11.457 0 0 0 0-16.208v0Z" stroke="#fff" stroke-width="2" stroke-linecap="round" stroke-linejoin="round"/><ellipse cx="31.495" cy="17.305" rx="2" ry="3" transform="rotate(10.109 31.495 17.305)" fill="#fff"/><ellipse cx="23.138" cy="23.327" rx="5.015" ry="6.228" transform="rotate(1.147 23.138 23.327)" fill="#fff"/><ellipse cx="26" cy="12" rx="2" ry="3" fill="#fff"/><ellipse cx="19.662" cy="12.393" rx="2" ry="3" transform="rotate(-13.899 19.662 12.393)" fill="#fff"/><ellipse cx="14.662" cy="17.393" rx="2" ry="3" transform="rotate(-13.899 14.662 17.393)" fill="#fff"/></svg>